tugOfWar_states
version=1
nRows=34
nColumns=17
inDegrees=yes

# SIMM Motion File Header:
name tugOfWar_states
datacolumns 17
datarows 34
otherdata 1
range 1.07699261 1.21297331
endheader
time	blockToGround_xTranslation	blockToGround_yTranslation	blockToGround_zTranslation	blockToGround_xRotation	blockToGround_yRotation	blockToGround_zRotation	blockToGround_xTranslation_u	blockToGround_yTranslation_u	blockToGround_zTranslation_u	blockToGround_xRotation_u	blockToGround_yRotation_u	blockToGround_zRotation_u	muscle1.activation	muscle1.fiber_length	muscle2.activation	muscle2.fiber_length
      1.07699261	      0.03341691	     -0.00001404	     -0.03508969	     -0.96293601	     -1.67619661	      0.92740200	     -0.01188426	      0.00012188	      0.01926516	      2.66336592	     -4.86965434	     -5.79154755	      0.34061836	      0.06329346	      0.01703092	      0.13338686
      1.08067748	      0.03336450	     -0.00001372	     -0.03501788	     -0.95226373	     -1.69258238	      0.91592715	     -0.01661198	      0.00005310	      0.01974043	      3.30226902	     -4.13105413	     -0.27907127	      0.33936553	      0.06336442	      0.01696828	      0.13333327
      1.08436235	      0.03329462	     -0.00001366	     -0.03494457	     -0.93886673	     -1.70665441	      0.92490729	     -0.02129315	     -0.00001833	      0.02001212	      3.79912993	     -3.43492399	      5.26998458	      0.33811732	      0.06343466	      0.01690587	      0.13324735
      1.08882264	      0.03318709	     -0.00001394	     -0.03485454	     -0.91970151	     -1.72087714	      0.96278331	     -0.02694998	     -0.00011010	      0.02045198	      4.27438207	     -2.68748785	     11.72195563	      0.33661257	      0.06351846	      0.01683063	      0.13317144
      1.09250149	      0.03307996	     -0.00001450	     -0.03477904	     -0.90194266	     -1.73062775	      1.01509355	     -0.03119499	     -0.00019478	      0.02051520	      4.49047628	     -2.17878522	     16.72902663	      0.33537650	      0.06358630	      0.01676883	      0.13306833
      1.09618035	      0.03295774	     -0.00001538	     -0.03470324	     -0.88305757	     -1.73898006	      1.08496203	     -0.03520967	     -0.00028587	      0.02073307	      4.61143241	     -1.79173132	     21.20020998	      0.33414497	      0.06365292	      0.01670725	      0.13300791
      1.09985920	      0.03282178	     -0.00001661	     -0.03462699	     -0.86353761	     -1.74636859	      1.17026282	     -0.03859208	     -0.00038483	      0.02066354	      4.56042222	     -1.54225304	     25.10452912	      0.33291796	      0.06371816	      0.01664590	      0.13291096
      1.10353805	      0.03267435	     -0.00001821	     -0.03455103	     -0.84402592	     -1.75327992	      1.26861375	     -0.04147268	     -0.00048653	      0.02065397	      4.39720979	     -1.44440814	     28.25265164	      0.33169545	      0.06378202	      0.01658477	      0.13284045
      1.10721691	      0.03251763	     -0.00002019	     -0.03447537	     -0.82505361	     -1.76023592	      1.37710975	     -0.04359125	     -0.00058792	      0.02043460	      4.08353243	     -1.50489419	     30.61641348	      0.33047743	      0.06384443	      0.01652387	      0.13274670
      1.11191847	      0.03230827	     -0.00002324	     -0.03438003	     -0.80253145	     -1.77004346	      1.52562884	     -0.04534482	     -0.00070453	      0.02023373	      3.54106961	     -1.81168499	     32.30824781	      0.32892732	      0.06392217	      0.01644637	      0.13265732
      1.11547479	      0.03214614	     -0.00002588	     -0.03430875	     -0.78729737	     -1.77875897	      1.64129768	     -0.04567650	     -0.00077731	      0.01978872	      2.98919787	     -2.20957200	     32.63878086	      0.32775963	      0.06397950	      0.01638798	      0.13255298
      1.11903110	      0.03198399	     -0.00002874	     -0.03423892	     -0.77413125	     -1.78907888	      1.75651893	     -0.04541034	     -0.00082677	      0.01950330	      2.38967627	     -2.72961595	     32.04982470	      0.32659608	      0.06403575	      0.01632980	      0.13249049
      1.12258741	      0.03182420	     -0.00003173	     -0.03417036	     -0.76333510	     -1.80136735	      1.86813320	     -0.04432464	     -0.00084995	      0.01903571	      1.70404449	     -3.35462358	     30.64015174	      0.32543667	      0.06409100	      0.01627183	      0.13240454
      1.12747444	      0.03161341	     -0.00003586	     -0.03407889	     -0.75291893	     -1.82199116	      2.01032092	     -0.04178786	     -0.00082832	      0.01847885	      0.72637771	     -4.33063975	     27.36547809	      0.32385013	      0.06416559	      0.01619251	      0.13231407
      1.13130299	      0.03145879	     -0.00003892	     -0.03400927	     -0.74851744	     -1.84141762	      2.10847295	     -0.03882623	     -0.00076775	      0.01782475	     -0.07341308	     -5.15083009	     23.89507200	      0.32261262	      0.06422314	      0.01613063	      0.13221349
      1.13513153	      0.03131660	     -0.00004168	     -0.03394192	     -0.74757426	     -1.86380620	      2.19181904	     -0.03539147	     -0.00066588	      0.01740723	     -0.83302924	     -5.97253804	     19.64944064	      0.32137985	      0.06428021	      0.01606899	      0.13215549
      1.13896008	      0.03118870	     -0.00004398	     -0.03387631	     -0.75004863	     -1.88909034	      2.25773526	     -0.03133111	     -0.00053037	      0.01684982	     -1.58300519	     -6.78080206	     14.85628290	      0.32015178	      0.06433699	      0.01600759	      0.13207145
      1.14367855	      0.03105352	     -0.00004601	     -0.03379805	     -0.75772284	     -1.92403951	      2.31223772	     -0.02595738	     -0.00032335	      0.01643082	     -2.41087935	     -7.71055740	      8.31702969	      0.31864471	      0.06440703	      0.01593224	      0.13199955
      1.14784481	      0.03095596	     -0.00004694	     -0.03373050	     -0.76840965	     -1.95805605	      2.33392215	     -0.02080345	     -0.00012102	      0.01594329	     -3.06134921	     -8.46942239	      2.29357310	      0.31731992	      0.06446929	      0.01586600	      0.13190613
      1.15201107	      0.03087987	     -0.00004701	     -0.03366452	     -0.78240244	     -1.99471122	      2.33021442	     -0.01578118	      0.00008927	      0.01581612	     -3.56683898	     -9.12932902	     -3.84062554	      0.31600063	      0.06453243	      0.01580003	      0.13185603
      1.15617733	      0.03082464	     -0.00004622	     -0.03359910	     -0.79913880	     -2.03358461	      2.30125375	     -0.01073991	      0.00028776	      0.01556427	     -3.96038496	     -9.70710776	     -9.73445877	      0.31468683	      0.06459679	      0.01573434	      0.13177474
      1.16034359	      0.03078965	     -0.00004464	     -0.03353429	     -0.81807862	     -2.07429055	      2.24839416	     -0.00615654	      0.00046507	      0.01560715	     -4.19332220	    -10.16917704	    -15.27198225	      0.31337849	      0.06466278	      0.01566892	      0.13172294
      1.16450985	      0.03077286	     -0.00004239	     -0.03346922	     -0.83853223	     -2.11637302	      2.17364584	     -0.00197904	      0.00060698	      0.01562030	     -4.29107085	    -10.53235790	    -20.16668327	      0.31207559	      0.06473069	      0.01560378	      0.13164988
      1.16963380	      0.03077385	     -0.00003895	     -0.03338859	     -0.86476753	     -2.16942012	      2.05619000	      0.00210334	      0.00072641	      0.01598470	     -4.18190375	    -10.81687876	    -25.13557223	      0.31048062	      0.06481729	      0.01552403	      0.13158807
      1.17384988	      0.03078849	     -0.00003577	     -0.03332076	     -0.88623498	     -2.21356526	      1.94287458	      0.00474011	      0.00077205	      0.01614141	     -3.92687769	    -10.92211187	    -28.05946883	      0.30917436	      0.06489126	      0.01545872	      0.13150494
      1.17806596	      0.03081218	     -0.00003250	     -0.03325186	     -0.90675517	     -2.25764132	      1.81946518	      0.00630609	      0.00077638	      0.01660377	     -3.49470510	    -10.87255736	    -29.92399802	      0.30787360	      0.06496781	      0.01539368	      0.13145884
      1.18228204	      0.03084058	     -0.00002928	     -0.03318109	     -0.92550246	     -2.30109629	      1.69070605	      0.00701914	      0.00074156	      0.01694672	     -2.95394994	    -10.69314670	    -30.56287915	      0.30657831	      0.06504681	      0.01532892	      0.13138318
      1.18649812	      0.03086975	     -0.00002628	     -0.03310859	     -0.94182232	     -2.34346255	      1.56174435	      0.00662843	      0.00067866	      0.01748432	     -2.28922040	    -10.37558070	    -30.03545300	      0.30528848	      0.06512812	      0.01526442	      0.13132777
      1.19169687	      0.03090017	     -0.00002302	     -0.03301603	     -0.95765252	     -2.39353448	      1.40979050	      0.00489492	      0.00057348	      0.01803119	     -1.38234864	     -9.82912209	    -27.73314298	      0.30370548	      0.06523111	      0.01518527	      0.13122373
      1.19557087	      0.03091484	     -0.00002096	     -0.03294499	     -0.96589145	     -2.42892367	      1.30670251	      0.00253571	      0.00048705	      0.01867545	     -0.62407754	     -9.31738340	    -24.98673191	      0.30253120	      0.06530953	      0.01512656	      0.13118030
      1.19944486	      0.03091914	     -0.00001925	     -0.03287170	     -0.97072847	     -2.46239753	      1.21598278	     -0.00041691	      0.00039738	      0.01914596	      0.12320610	     -8.74236193	    -21.37628305	      0.30136146	      0.06538902	      0.01506807	      0.13110471
      1.20479222	      0.03090370	     -0.00001745	     -0.03276744	     -0.97162950	     -2.50515496	      1.11662116	     -0.00558815	      0.00027790	      0.01993427	      1.15517946	     -7.86260756	    -15.30307515	      0.29975428	      0.06549994	      0.01498771	      0.13102037
      1.20888277	      0.03087183	     -0.00001649	     -0.03268495	     -0.96771163	     -2.53500247	      1.06422458	     -0.01003237	      0.00018990	      0.02033486	      1.86674843	     -7.16062976	     -9.94899726	      0.29853062	      0.06558519	      0.01492653	      0.13091926
      1.21297331	      0.03082085	     -0.00001588	     -0.03260067	     -0.96000142	     -2.56235365	      1.03456737	     -0.01496565	      0.00010620	      0.02090997	      2.54053455	     -6.45562513	     -4.27640796	      0.29731196	      0.06567043	      0.01486560	      0.13085646
